/* XPM */
static char *_5090ef9ee0e480ddfa97b22cfe7c5e73HeSBYMtef1gP6G2[] = {
/* columns rows colors chars-per-pixel */
"50 50 77 1 ",
"  c #000083",
". c #00058A",
"X c #00158B",
"o c #001C8C",
"O c #00238E",
"+ c #00298E",
"@ c #00308F",
"# c #002590",
"$ c #002D91",
"% c #003391",
"& c #013993",
"* c #0F3C95",
"= c #153E95",
"- c #1A3F96",
"; c #1F4397",
": c #204497",
"> c #254698",
", c #274899",
"< c #2B4A9A",
"1 c #314E9B",
"2 c #35519D",
"3 c #3A559E",
"4 c #3F5A9E",
"5 c #475FA2",
"6 c #5367A6",
"7 c #5B6FA7",
"8 c #6376AB",
"9 c #6979AF",
"0 c #6E7EB1",
"q c #7C8AB6",
"w c #8C98BF",
"e c #909BBF",
"r c #959FC2",
"t c #96A2C5",
"y c #9BA7C8",
"u c #9DA9CA",
"i c #A4ADCB",
"p c #AAB4CB",
"a c #AFB8CF",
"s c #B0B7D2",
"d c #B4BCD4",
"f c #B9C2D6",
"g c #BDC4DA",
"h c #C1C7DA",
"j c #C2C9DC",
"k c #C4CBDC",
"l c #C5CBDE",
"z c #C6CDDF",
"x c #C8CEDE",
"c c #CACFE0",
"v c #CBD0E0",
"b c #CBD1E1",
"n c #CCD2E2",
"m c #CFD4E3",
"M c #D1D7E4",
"N c #D4D9E5",
"B c #D6DAE8",
"V c #DADFEA",
"C c #DEE2EB",
"Z c #E1E6ED",
"A c #E8EBF0",
"S c #EAEDF2",
"D c #EDEFF1",
"F c #EFF2F4",
"G c #F0F2F4",
"H c #F2F3F7",
"J c #F5F6F9",
"K c #F6F8FA",
"L c #F9F9F9",
"P c #F8F8FA",
"I c #FCFBFB",
"U c #FCFCFB",
"Y c #FBFBFC",
"T c #FBFCFC",
"R c gray99",
"E c #FEFDFC",
"W c white",
/* pixels */
"WWWWWWWWWWWWWWWWWWWWWWWWWWWWWWWWWWWWWWWWWWWWWWWWWW",
"WWWWWWWWWWWWWWWWWWWWWWWWWWWWWWWWWWWWWWWWWWWWWWWWWW",
"WWWWWWWWWWWWWWWWWWWWWWWWWWWWWWWWWWWWWWWWWWWWWWWWWW",
"WWWWWWWWWWWWWWYWWWWWWWWWWLWWWWWUWWWWWWWLLWWWLWWWWW",
"WWWWLLWLLWLLLLLWPLWLWLWLWLLLLLWLWLWLWLWLWLWLWLWWWW",
"WWWWLWLWWLWLWWLLLWLWLWLWLWWWLWLWLWLWLWLWLWLWLWWWWW",
"WWWWWLWLLWLWLWLWWLWLWLWLWLCLWLWLWLWLWLWLWLWLWLWWWW",
"WWWWLWLWWLWLWLWLLWLWLWLWWm.rWWLWLWLWLWLWLWLWLWWWWW",
"WWWWLWLWLWLWLWLWWLWLWLWYWhoOyWWLWLWLWLWLWLWLWLWWWW",
"WWWWWLWLWLWLWLWLLWLWLWLYWjO2opWULWLWLWLWLWLWLLWWWW",
"WWWWLWLWLWLWLWLWWLWLWLLYWho1>osWIYWUWLWLWLWLWLWWWW",
"WWWWWLWLWLWLWLWLLWLWLWWYWho<>>OfWLLULWLWLWLWLWWWWW",
"WWWWPWLWLWLWLWLWWLWLWLWYWho1;>;+jWKIWLWLWLWLWLWWWW",
"WWWWWLWLWLWLWLWLLWLWLWLYWjo<;;>;&cWLLWLWLWLWLWWWWW",
"WWWWLWLWLWLWLWLWLWWLWLIUWho<;;;>&;bWLWWLWLWLWLWWWW",
"WWWLWLWLLUYYYYYYYYYYLWLLWgO<;;;;<%>NWLIWLWLWLLWWWW",
"WWWWLWUWWWWWWWWWWWWWWWWWWjo1;;;;;<%<VWLYWLWLWLWWWW",
"WWWUWLWSdddfgggjjlzxbbbnMq$>;;;;;;<%2CWLLWLWLWWWWW",
"WWWWUKWu OXooooooOOOO+++O$>;;;;;;;;<$4ZWLWWLWLWWWW",
"WWWWWLWy%2<11<<<<<<<,<<<<<;;;;:;;;;;2$5AWHWWLLWWWW",
"WWWWILWuO>;;;;;;>;;;;::::;;::;:;:;;:;<+6DWKWLWTWWW",
"WWWUWLWyo<;;;;;;;;>;;;:;;;;;;;;;;;;;;;1O7FWLWLWWWW",
"WWWWWJWyO<;;;::;;;;;;;:;:;:;:;;::;;:;;;<O8JWLWWWWW",
"WWWWWLWyO>;;;;;;;;;;;;;;;;::-;;;;;;;;;;;<o0JWLWWWW",
"WWWWILWyO<;;;;;;;;;;;;;;;:;:;;:;;;;;;;;;:<oqLWLWWW",
"WWWWWJWtO>;;;;:;;;;;;;;;;;;;;;;;;;;;;;;;;1O6FWYWWW",
"WWWWWLWtO<;;;;;;;;;;;;;;;;;;:;;:;;;;;;;;1+3CWLWWWW",
"WWWULLWyO>;;;;;;;>;;;>;;;:;:;;;;;;;;;:;<@2VWKWIWWW",
"WWWLWLWtO<;;;;;;;;;;;;;;;;;:;:-:;;;;;;<%:BWLLWWWWW",
"WWWWILWtO<;;;;;;;;;;;;;;;;;;;;::;;;;;<&=MWLUWLWWWW",
"WWWWWLWt+<><>>><<>>>><><>>;;:;;;;;;;>*&nWLTWLWLWWW",
"WWWWWLWi %+++++++++$+O#Oo&:;;;;:;;;,;@bWLLWLWLWWWW",
"WWWWWLWHxcxxxzxxlllhhggfg9%<;;;;;;,;%zWLWLWLWLWWWW",
"WWWWLWYWWWWWWWWWWWWWWWWWWfX1;;;;;,=@gWLWLWLWLWWWWW",
"WWWWWLWLLJLKLLLLLLLLLJLJWdX1;;:;,;+fWLLUWLWLWLWWWW",
"WWWWLWLWWWWWWLWWYWWLWWWLWdX<;;;>:OdWLLWWLWLWLLWWWW",
"WWWWLYWLLWLWLWLWLWLWLWYYWdX1;;:>OaWLWWWLLWLWWLWWWW",
"WWWWLWLWWLWLWLWLWLWLWLWWWdX1;:,opWULWLLWWLWLLWWWWW",
"WWWLWLWLLWLWLWLWLWLWLWLLWdX<;<XiWULWLLWLLWLWLWWWWW",
"WWWWLWLWWLWLWLWLWLWLWLWYWdX1,XyWULWLTWLWWLWLWLWWWW",
"WWWWWLWLLWLWLWLWWLWLWLLYWdO3XtWWLWLWLWLWLWLWLWWWWW",
"WWWWLWLWWLWLWLWLLWLWLWWYWdX+eWWLLLWLWLWLWLWLWLWWWW",
"WWWWWLWLLWLWLWLWWLWLWLWLWf wUWYWWLLWLWLWLWLWWTLWWW",
"WWWWLWLWWLWLWLWLLWLWLWLWWGkJWLLWLWWLWLWLWLWLLUWWWW",
"WWWWWLWLWLWLLWLWWLWLLWLWUWWULWLLWWLWLWLWLWLWWLWWWW",
"WWWWLLLWLWLLWLWLLLLWWLWLULLUWLYWWLWLWLWLWLWPLWWWWW",
"WWWLWWWWWWWWWYWWWWWTWWTWWWWWWWWWWWWWUWWWWLWWWWWWWW",
"WWWWWWWWWWWWWWWWWWWWWWWWWWWWWWWWWWWWWWWWWWWWWWWWWW",
"WWWWWWWWWWWWWWWWWWWWWWWWWWWWWWWWWWWWWWWWWWWWWWWWWW",
"WWWWWWWWWWWWWWWWWWWWWWWWWWWWWWWWWWWWWWWWWWWWWWWWWW"
};
