/* XPM */
static char *b03e4ff2419e4b8cb10f5c0fc0a485875dSoU0usdJWnk7NZ[] = {
/* columns rows colors chars-per-pixel */
"50 50 11 1 ",
"  c #909090",
". c gray58",
"X c #989898",
"o c #9A9A9A",
"O c #9B9B9B",
"+ c gray64",
"@ c #A7A7A7",
"# c gray66",
"$ c #AEAEAE",
"% c #B2B2B2",
"& c gray73",
/* pixels */
"&@####@@#++@@+#++@@+#+@@@@##@@@@#################%",
"+ . ... . ....O......  .. ....... ........ O. .. +",
"#.OOOOOOOOOOOOOOOOOOOOOOOOOOOOOOOOOOOOOOOOOOOOOOO@",
"@.OO O OOO  O O  O OOO. O O OO O.OO.OO..O.OOOO O @",
"#.O.OOO  OOOO OOOOOOOOOO OOOOOOOOOO.OO.OO..OOOOO +",
"# OOOOOOOOOOOOOO O OO O OOO  OO  OOO..OOOOOOO. OO+",
"# O  OO OOOOOOO O.OOO..OOOOOOOOOOO.OO..O.OOOO.O. #",
"@.OOOOOO OOO..OOOOOOOOOOOOO O OO OOOOOOOO.O..OOO @",
"@.OOO OO OO OO O O OOOOO O OOOO .OOO.O OO O. O..O@",
"@ OOOOOOOOOO OOOOOOOOO. OOOOO OO.OO.OOOOOOO.OOOO #",
"#. OO O OOOOOOOOOO O OOOOOOOOOOOOOOO.OOOOOOOOOOO +",
"+ OOOOOOOO OOO OO OOOOOO OO O OO.O.OO.O..OO.OO O.@",
"+.O OOOO O..OOOOOOO OO.  O O .OOO O..OOOOOO OO.OO@",
"@.OOO.O .OOOO  O.OOOO OOOOOOOOOOO.OOOO. O OO OOO +",
"@.O OO.OOOOOOOOO OO OOOOOOO  O OOOOOOOOOO.OOO....+",
"+.OOOO.OOO OOO OOOOOOO  OOOOOOOO.O.OO .OOO.OOOOOO@",
"#.OOOOOO OO  O OO OO OOOOOO OOOO OO.O.OOOOOOO..O +",
"# O O OOOOOOOOOOOOO.OO O OOOO OOOOOOOOO...O.OOOO.+",
"@ OOO O O OOOOOO OO  OO.O O.O  OO. O O OO..O.O..O@",
"#.O.OOOOOOOO O OOOOOOOOOOOOOOOOOOOOOOOOOO.OOOOOO @",
"@.OO OOOO OOO OOOOOOOOOO OOOOOOOOOO.OOOOOOOOO.OO.@",
"+.O OOO OOOOOOOOO  O O OOOO. O OOO.OO OO.O.OOO O.#",
"#.OOOOOOO O .O OOOOOO OOOOOO OOOO  O OO OOOO O O.+",
"#.O O O OOOOOOOO.O OOOO. O OOOO.O.OOOOO....OOOOO.+",
"@ O OOOOOOO OOOOOOOOO O OOOO OOOOOO.OOO.O.OOOO..O+",
"@.OOOOO  OOOOO OOO OOOOOOOOOOOO ..OOO OOOO.O.OOO @",
"@.O OOO OOOOOOOO OOOOOOO O  OOOOOOOOOOOOO.OOO.OO.#",
"@ OOO.OOO O  O O O.OO O.OOOO OO O O.O O.O..OO..O.#",
"# OOOOO O OOOO OO OO OOO OO O.OO OO.O O O OO OOO +",
"# OOO OOOOOO OOOOO OOO OOOOOOO OOOOOOOOOOOOOOO.O.@",
"@.O OOOOO O OOOOOOOOOOOOOO OO OOOO.OO .O.O.O.O OO+",
"#.O OOO OOOOOO OO OOOO  OOOOOOOO OOOOOOOOOO.OOOO.@",
"#.OOO.OOO OOOOOO.O..OOO OO OO O.OO.OOO.OO O.OO.OO@",
"@.O O O.OO.O....O.OOO.O OO.OO OOO..OO O.OOO..O.O @",
"# OOOOOOOOOOO.OOOOO.O..OOOOOOOO.OOOOOOOOOOOOOOOO.#",
"# OOO.OO.O.O.OOOO OOOOOO.OO..OOO .OOO O.O.O.OO O +",
"#.OOO.O OOO.OOOOOOOOOOOOOOOOOOOOOOOOO.OOOOOO.OOOO@",
"#.O O.O.O..OO  O O.O..O  O OO O.O. OOOO O O .O.. @",
"#.OOOO.OO.OOO.OOO.OOOOOOOO.OOO.OO.O.OO.OOOOOOOOO.#",
"#.OOOOOOOO.OOOOOOO.O.O.OOOO.OOO.OOOOO.OOO..OOO O +",
"#.OOO.OO OO.O OO OO OO.O OO O.OO O O.OO.O .OO. OO@",
"# O.O.O OOOOOO.OOOOOOOOOOOOOO.OOOOOOO.OOOOOOOOOO @",
"#.OOO.OO.OO.O .O.OO.. O OO.O.OO OO O.O OO O ...O.#",
"#.O.OOOOOO.OOOOO.OOOOOOOOOO.OOOOOOOOOOOOOOOOOOOO +",
"#OOO..O.O.OOO.OO OO.O. O.O.OO.O  OO. OOOO OOO..OO@",
"#.O.OOOOOO.OOO.OOOOOOOOOO.OOOOOOOO.OOOO.OO.OOOOO @",
"#.O  OO..O.OO .O.OO.O  OO  O O.OO .O OO O..OO. O.#",
"#.OOOOO.OO.OOOOO.OOOOOOOOOOOOOOOOOOOOOOOOO.OOOOO +",
"# ..O .O O  O  .O  .O .O.O .O ......O .O O  O  ..@",
"%+@+@++@++#@@#+@@#+@@++@++#++#+@+#+@@++@++#@@#+@+$"
};
