/* XPM */
static char *ccff1ad455d54b0c8f8fb2cdd8a16b3aQSPlPkx4NsAe7di5[] = {
/* columns rows colors chars-per-pixel */
"50 50 77 1 ",
"  c #000083",
". c #00058A",
"X c #00158B",
"o c #001C8C",
"O c #00238E",
"+ c #00298E",
"@ c #00308F",
"# c #002590",
"$ c #002D91",
"% c #003391",
"& c #013993",
"* c #0F3C95",
"= c #153E95",
"- c #1A3F96",
"; c #1F4397",
": c #204497",
"> c #254698",
", c #274899",
"< c #2B4A9A",
"1 c #314E9B",
"2 c #35519D",
"3 c #3A559E",
"4 c #3F5A9E",
"5 c #475FA2",
"6 c #5367A6",
"7 c #5B6FA7",
"8 c #6376AB",
"9 c #6979AF",
"0 c #6E7EB1",
"q c #7C8AB6",
"w c #8C98BF",
"e c #909BBF",
"r c #959FC2",
"t c #96A2C5",
"y c #99A4C6",
"u c #9BA7C8",
"i c #9DA9CA",
"p c #A4ADCB",
"a c #A7B0CC",
"s c #AAB4CB",
"d c #AFB8CF",
"f c #B0B7D2",
"g c #B4BCD4",
"h c #B9C2D6",
"j c #BDC4DA",
"k c #C1C7DA",
"l c #C2C9DC",
"z c #C4CADC",
"x c #C6CBDC",
"c c #C6CADE",
"v c #C7CEDE",
"b c #C9CFDF",
"n c #CACFE0",
"m c #CAD0E0",
"M c #CBD1E1",
"N c #CDD3E2",
"B c #D1D6E4",
"V c #D1D7E4",
"C c #D4D9E5",
"Z c #D8DDE9",
"A c #DCE2E9",
"S c #E1E6ED",
"D c #E8EBF0",
"F c #EDEFF1",
"G c #EFF2F4",
"H c #F0F2F4",
"J c #F3F5F8",
"K c #F5F6F9",
"L c #F6F8FA",
"P c #F8F8F9",
"I c gray98",
"U c #FCFBFB",
"Y c #FCFCFB",
"T c #FBFBFC",
"R c #FBFCFC",
"E c gray99",
"W c white",
/* pixels */
"WWWWWWWWWWWWWWWWWWWWWWWWWWWWWWWWWWWWWWWWWWWWWWWWWW",
"WWWWWWWWWWWWWWWWWWWWWWWWWWWWWWWWWWWWWWWWWWWWWWWWWW",
"WWWWWWWWWWWWWWWWWWWWWWWWWWWWWWWWWWWWWWWWWWWWWWWWWW",
"WWWWWWWWWWWWIWWWWIWWYWWWTIWWIWWWWWWWIWWWWIWWWIWWWW",
"WWWIIIIWIIWIWIIWIIWIWIWLWWIIWWIIIIWIWIIWIIIWIIWWWW",
"WWWWIWWIWIIWIWIIIWIIIWIWIGWIIYIWWIIWIWIIIWWIIWWWWW",
"WWWWIIIIIWWIIWIWWWIIWIWJq6AWIWWIIWWIIWIWYIWIWWWWWW",
"WWWWWWIWIWIIWIIWIIWWJWJ0oo3ZWJWUIWIIWIIWWIIWIIWWWW",
"WWWWIWIIWWIWIWIIIWWIWH8O<2@2CWIYRRWWIWWIIWIIWIWWWW",
"WWWWWIIWIIIIWIIWYILWF7O<;;<%>VWIIWIIIIIIIIWWIIWWWW",
"WWWWWIIWIWWIWIIWWJWD6O<:;;;<%=NWIYWIWIIWWIWIIWWWWW",
"WWWWIWIIWIIWUIWIIWS5O1;;;;;;<&&bWIIWIWWIIWIIWIIWWW",
"WWWWIIIWIIIWIWIIWA4#<;;;;;;;;,*@cWIYYIWRIWIIIWWWWW",
"WWWWIWIWIWIWWIIWZ2%2;:;;;;;;;;>;%jWITWIYWIIWWIWWWW",
"WWWWIWIIWWIYIIWC<%1;:;;;;;;;;;;,=@hWIIWIIWWIWIWWWW",
"WWWIWIIWIIWIIWN>%<-;:;;;;;;;;;;;,;+gWWIWIIWIIIWWWW",
"WWWWWIIWIWTIWv;%<;;;:;;:::;;:::;;<-OdWYIWWIWWIWWWW",
"WWWYIIWIWITWl&%<;;;;;;;-;:;;-:;:;-,:osWYIIIIIWWWWW",
"WWWWWIIWIIWh@=,;>;;;;;;;;;;::;;;;;;,:opWYIWIIIWWWW",
"WWWWWIYIWWfO;,;;;;;;:;;:;:;;-;;;;;;;>>ouWWIWWITWWW",
"WWWWWYIWWao:>;;;;;;;;;;;;;;;::-:;;;;;:<XyWWIYYWWWW",
"WWWWYIWWyo,,;>;;;;;;;;;:;;:;::::;:;;;;;>XeYWIWWWWW",
"WWWIIWIrO22<<11<<<;;;;;;:;;;;;;;>111<1<23+wJYTWWWW",
"WWWWIWA.oOooooooo+>;;;;;;;;;;;;>%XXXoXXXOX cWIWWWW",
"WWWITWINklkkkkkjlq%,;;;;;:;:;;>%9hgggggfggjHWIWWWW",
"WWWWWIWWWWWWWWWWWBO<:;;;;;;;;;,#jWWWWWWWWWWWYIWWWW",
"WWWWWIIITTTTITIIWN+<:;;>;;;;;;,#hWITITITITITYRWWWW",
"WWWWIIWYIIWIWIWIWM+<:;;;:;;:;;,#jWITWIWIWTWIIWIWWW",
"WWWWWWIWWIWWIIWTWM+<:;;;;;;>;;,#jWIWIIWIIIWIIWWWWW",
"WWWWIIIIIIIIWWIYWMO>:;;:;;;;:;,OkWITWWIIIWWIIWWWWW",
"WWWYIWWIIWWIIWIIWbO<:;;;;;;;;;,#lWIUIWIWWIIWWIWWWW",
"WWWWWIIWWIIWIIWIWbO<:;;;;;;;;;,#lWIWIIWIIWIIIIWWWW",
"WWWWIIWIIWIIWIITWcO<>;;;:;;>;;,+cWIWIWIIWIIWIIWWWW",
"WWWIIWIWWIWIIWWTWlo<;;;;;;;;;;,+cWIIWIIWWIWIIWWWWW",
"WWWWWIIWIIWWWIITWlo<;;;;;;;;;;,+vWIWWIIWIIWIWIWWWW",
"WWWWIIWIIWIIIIWTWkO<;;;;;;;;;;,+vWIIIWIIWIIWIIWWWW",
"WWWIIIWIIIWIWWITWjo1;;;;;;;;>;,+vWIUYYIWIIWITIWWWW",
"WWWWIRIWWWIIIIWTWjo<;;;;;;;;;;,+vWKWIWIWWWIIWIWWWW",
"WWWWWIWIIWIWWTIIWho<;;;;;;;;;;>$bWIWIWIIIWIWIWWWWW",
"WWWWIWIIIIWIIIWTWhX<;;;;;;;;;;>+bWIYWIIWIIWIIIWWWW",
"WWWWIIWIWIIWIIWIWgO2,<<,<,,<,<<%bWITWIIWWIIWIIWWWW",
"WWWWWWIIIWIWWITTWg %oOOOOOOOOOO nWIWIWIIIWIWWIWWWW",
"WWWWIWIWIWIIIWWIWDiyiyiyyyyyyytpGWWIIWIWIWIIIWWWWW",
"WWWWIIWIWIIWIIWIWWWWWWWWWWWWWWWWWWIIWIIWWIIWIIWWWW",
"WWWUIWIIIWWIWIIWWIIIPIIIIPIPJIIIIWIUIWIIIWIWIWWWWW",
"WWWWIITWWIIIIWWIIIWIUWIIIWUWWTWITTIWWIIWIIWIWIWWWW",
"WWWWWWWWWUIWWWWWUWWWWWWWUWWWWWIWWUWWWIWWWWWIWIWWWW",
"WWWWWWWWWWWWWWWWWWWWWWWWWWWWWWWWWWWWWWWWWWWWWWWWWW",
"WWWWWWWWWWWWWWWWWWWWWWWWWWWWWWWWWWWWWWWWWWWWWWWWWW",
"WWWWWWWWWWWWWWWWWWWWWWWWWWWWWWWWWWWWWWWWWWWWWWWWWW"
};
