/* XPM */
static char *_da7c3a39ca944d68ce4a63ea00136adhRexWy2EnaxX5ocH[] = {
/* columns rows colors chars-per-pixel */
"50 50 70 1 ",
"  c #000083",
". c #00058A",
"X c #00158B",
"o c #001C8C",
"O c #00238E",
"+ c #00298E",
"@ c #002590",
"# c #002D91",
"$ c #003391",
"% c #013993",
"& c #0F3C95",
"* c #153E95",
"= c #1A3F96",
"- c #1F4397",
"; c #204497",
": c #254698",
"> c #274899",
", c #2B4A9A",
"< c #314E9B",
"1 c #35519D",
"2 c #3A559E",
"3 c #475FA2",
"4 c #5367A6",
"5 c #5B6FA7",
"6 c #6376AB",
"7 c #6979AF",
"8 c #7C8AB6",
"9 c #8C98BF",
"0 c #909BBF",
"q c #959FC2",
"w c #96A2C5",
"e c #99A4C6",
"r c #9BA7C8",
"t c #9DA9CA",
"y c #A4ADCB",
"u c #AAB4CB",
"i c #AFB8CF",
"p c #B0B7D2",
"a c #B4BCD4",
"s c #B9C2D6",
"d c #BDC4DA",
"f c #C1C7DA",
"g c #C2C9DC",
"h c #C4C9DD",
"j c #C4CADC",
"k c #C6CDDF",
"l c #C9CFDE",
"z c #CBD0E0",
"x c #CCD2E2",
"c c #CDD3E2",
"v c #D1D6E4",
"b c #D1D7E4",
"n c #D4D9E5",
"m c #D6DAE8",
"M c #DCE2E9",
"N c #DEE2EB",
"B c #E8EBF0",
"V c #EDEFF1",
"C c #EFF2F4",
"Z c #F2F3F7",
"A c #F5F6F9",
"S c #F6F8FA",
"D c #F8F8F9",
"F c #F8F9FA",
"G c gray98",
"H c #FCFCFB",
"J c #FBFBFC",
"K c #FBFCFC",
"L c gray99",
"P c white",
/* pixels */
"PPPPPPPPPPPPPPPPPPPPPPPPPPPPPPPPPPPPPPPPPPPPPPPPPP",
"PPPPPPPPPPPPPPPPPPPPPPPPPPPPPPPPPPPPPPPPPPPPPPPPPP",
"PPPPPPPPPPPPPPPPPPPPPPPPPPPPPPPPPPPPPPPPPPPPPPPPPP",
"PPPPPPPPPPPPPGPPPGPPPPPPPKPPPPGPGPPPPPHPPPJPJPPPPP",
"PPPPGGGPGPGGPGGPGPGGPPHGGPGGGGPGJPGPJHJHGJPGHJHPPP",
"PPPPGPPGPGGPGGPGPGPGGGHPPGPPGPPGHGHJPGPGGPJHGPPPPP",
"PPPPHGGGPGGPPGPGGGPPGPAjCPPGPGGPJPJHGHJPHGHGHGPPPP",
"PPPPPPGPGPGGPGGPGPGGPH9 sPJGGPGGHGPGPJHGJPJPJPPPPP",
"PPPGPGPPGGPGGPGGHHGPP0#XaPJPGGPGJPGPGHJPGGPGGPPPPP",
"PPPPGGGGPGGPGPPGPGPPwX2OaPJGPGGPHGHJPJHGPPGGGGPPPP",
"PPPPGPPGPGGPHKHPGPPtX>1XaPGGPGGPJPJHGPGPGPGPPGPPPP",
"PPPGPGGPGGPGHGPGGPyX>;<opPGPGGPGHGPGHJHJGGPGGPGPPP",
"PPPPGGGGPGPGGPGHPuo:;-,XaPGGPPGPJPGPPGGPPGGPGPPPPP",
"PPPPGPPGPGGGPGHPiO;;--<XaPJGGGGGHGHJGGPGGPPGGPPPPP",
"PPPPGGPPGGPPGGPaO;:;;-<XaPPPGPPPHPPHPPPJPJGGGJPPPP",
"PPPPGPGGPGPGGPa#=>-;;-,XaPAGGGGAGGAGAGGSGGGPGGPPPP",
"PPPPPGGPGPKGPd$=,=;;--<XaPPPPPPPPPPPPPPPPPPHGPPPPP",
"PPPPGPGGKKGPj$=>------>$7dsfdfgjjjklklzzlzZPGPPPPP",
"PPPPGPPHPGPl$=>--;;--;-;$OOOOOO##+++++++$ yPGJGPPP",
"PPPPPGHGGPx%*:--------;-;:,:>:,:>>>>::,:,OwPGGPPPP",
"PPPGPGPGPb=%:;----;---;;----------------:OePGHPPPP",
"PPPPKJAPn;$>-;---;--=;;=----------------,OwPGPPPPP",
"PPPPJGPM1%,-;----;;-;------;;-----------:OrPGPPPPP",
"PPPGGPM2#,--;--;-=;;;;;----------------->OePGGPPPP",
"PPPGPC4O1-------;-;;--------------;--;--:OePGGPPPP",
"PPPGPG8o<;--------;=--;----;;--;--------,OePGGPPPP",
"PPPPGPA7X,;;---;---;;-;;--;------;------:OePGGPPPP",
"PPPPHGPA6@,;----;-;;;=;;------;---;--;-->OePGPPPPP",
"PPPKPPAPC5O,-;----;=--;=-;-;;----;------>OrPAHPPPP",
"PPPPGHPGPV4#,=;---;;-----;;;;;;;;;------>OrPGPPPPP",
"PPPPPGGPGPB3#<=---;---;;>>>,,>,,,,<,,,<<1$rPGGGPPP",
"PPPPGPGGKGPN3#<=;-;----:$O++++O#OoOoOXXXO tPGGPPPP",
"PPPPPGPPGPGPM1$,------,+8bxzzzlkjggdddsaaaBPGGPPPP",
"PPPPGGGGGGGGPm,$,-----<ojPPPPPPPPPPPPPPPPPPPHPPPPP",
"PPPPGPPGPGGPGPn:$>----,odPGGJJJGJJJJGJJGPGGJGGPPPP",
"PPPGPGGPGPPGJGPb-%,---,OfPGPJGPGPJGPGPJPGPPGPGPPPP",
"PPPPGGGGPJPJPPGPl%*>--,ofPGJPGJPGGPGGPGGGGPGGGPPPP",
"PPPPPHPGGHGHGHGGPg+-:-<ofPGPPJHGGPGPPGPGPPGGPGPPPP",
"PPPPGGPPHJPGPJJJJPs@;,,ofPGGGPGPPPGGGGPPGPGPPGPPPP",
"PPPPGPGGGPJHGHGPJGPio:1ofPJPHJHJGGPGGPGGGGPGGGPPPP",
"PPPPHGHGHJPGHGHJGGPPyo1OfPJGPGGPPGGPGGPGPGGPGGPPPP",
"PPPPJPJPGPJHJPGPGPGHPrOofPJPGGPGGGPGPPGGGPGPPGPPPP",
"PPPPPGHJHGHGPJHJPGGGHPq.bPGGPGPGPGPGGPGPGPGGGGPPPP",
"PPPPJHGPJPJPGHGPGPGPHPGMGPPGPGGPPGGPGGPGPGGPPGPPPP",
"PPPPPGPJGPPGHGHJPGPPPGGPJGPGGPGGGGPGGPGGPGGGGGPPPP",
"PPPPGGGHHJGGJPGPGGGGGPGGGPPGGGPGPGPGGGGPGPGGPGPPPP",
"PPPPJPPPPPHPPPPPPPGPPPGPPPPPPPGPPPPPPGPPPPPPPPPPPP",
"PPPPPPPPPPPPPPPPPPPPPPPPPPPPPPPPPPPPPPPPPPPPPPPPPP",
"PPPPPPPPPPPPPPPPPPPPPPPPPPPPPPPPPPPPPPPPPPPPPPPPPP",
"PPPPPPPPPPPPPPPPPPPPPPPPPPPPPPPPPPPPPPPPPPPPPPPPPP"
};
