/* XPM */
static char *f772d81b9d2e4cf5fcc6eaa6db087359ZtFEeq0qzXWxLUOf[] = {
/* columns rows colors chars-per-pixel */
"50 50 77 1 ",
"  c #000083",
". c #00058A",
"X c #00158B",
"o c #001C8C",
"O c #00238E",
"+ c #00298E",
"@ c #00308F",
"# c #002590",
"$ c #002D91",
"% c #003391",
"& c #013993",
"* c #0F3C95",
"= c #153E95",
"- c #1A3F96",
"; c #1F4397",
": c #204497",
"> c #254698",
", c #274899",
"< c #2B4A9A",
"1 c #314E9B",
"2 c #35519D",
"3 c #3A559E",
"4 c #3F5A9E",
"5 c #475FA2",
"6 c #5367A6",
"7 c #5B6FA7",
"8 c #6376AB",
"9 c #6979AF",
"0 c #6E7EB1",
"q c #7C8AB6",
"w c #8C98BF",
"e c #909BBF",
"r c #959FC2",
"t c #96A2C5",
"y c #99A4C6",
"u c #9BA7C8",
"i c #9DA9CA",
"p c #A4ADCB",
"a c #AAB4CB",
"s c #AFB8CF",
"d c #B0B7D2",
"f c #B4BCD4",
"g c #B9C2D6",
"h c #BDC4DA",
"j c #C1C7DA",
"k c #C3C8DB",
"l c #C2C9DB",
"z c #C1C8DC",
"x c #C4C9DD",
"c c #C4CBDC",
"v c #C7CEDE",
"b c #C9CFDE",
"n c #CACFE0",
"m c #CAD0E0",
"M c #CBD0E0",
"N c #D1D6E4",
"B c #D1D7E4",
"V c #D4D9E5",
"C c #D8DDE9",
"Z c #DADFEA",
"A c #DCE2E9",
"S c #E1E6ED",
"D c #EAEDF2",
"F c #EDEFF1",
"G c #EFF2F4",
"H c #F0F2F4",
"J c #F2F3F7",
"K c #F3F5F8",
"L c #F5F6F9",
"P c #F6F8FA",
"I c #F9F9F9",
"U c #FCFBFB",
"Y c #FCFCFB",
"T c #FBFBFC",
"R c #FBFCFC",
"E c gray99",
"W c white",
/* pixels */
"WWWWWWWWWWWWWWWWWWWWWWWWWWWWWWWWWWWWWWWWWWWWWWWWWW",
"WWWWWWWWWWWWWWWWWWWWWWWWWWWWWWWWWWWWWWWWWWWWWWWWWW",
"WWWWWWWWWWWWWWWWWWWWWWWWWWWWWWWWWWWWWWWWWWWWWWWWWW",
"WWWWWWWWWUWWWWIWWWWWWWTWWTWWWWIWWIWWWWWWWWWIWWWWWW",
"WWWWIIWIIWIWIWIWIUWTWTWWWWYWYWIWTWIWWIWIIWIWIWIWWW",
"WWWWIWIWWIWIWIWIWIIIIIIILIIIIIIIIWWIIWIWWIWIWIWWWW",
"WWWWWIWIIWIWIWIWIWWWWWWWWWWWWWWWWIWIWIWIIWIWIWWWWW",
"WWWWIWIWWIWIWIWIWJptytyyyyyuuiuiDWIWIWIWWIWIWIWWWW",
"WWWWWIWIWIWIWIWIWM +OOOOOOOOOO$ fWWIWIWIWIWIIWWWWW",
"WWWWIWIWIWIWIWWPWM%<,,,,,,,,,,2OfWIWIWIWIWIWWIWWWW",
"WWWIWIWIWIWIWIWIWn+>;;;;;;;;;;1XfWTIWIWIWIWIIWWWWW",
"WWWWIWIWIWIWYIWIWb+>;;:;:;;;;;1XgWTWIWIWIWIWIIWWWW",
"WWWWIIWIWIWIWIWLWb+,;;;;;;;;;;<ohWTIWIWIWIWIIIWWWW",
"WWWWIWIWIWIWIWWIWv+,;;;;;;:;;;<ohWTWIWIWIWIWWIWWWW",
"WWWWWIWIWIWIWIWIWb+,;;;::;;:;;<OhWWIWIWIWIWIIIWWWW",
"WWWWIWIWIWIWIWWLWv+,;;;;;;;;;:1ozWIWIWIWIWIWWIWWWW",
"WWWWWIWIIWIWTTTTWx+,;;;;;;;;:;<OcWTTWIWIWIWIWIWWWW",
"WWWWIWIWWIWIWTWIWx+,;;;;;:;:;;<OcWTTIWIWIWIWIWWWWW",
"WWWWWIWIIWIWIWTIWk+,;;:;;:;;;:<#vWIIWIWIWIWIWIWWWW",
"WWWWIWIWWIWIWIWIWk+,;;;;;;;;;:<+bWWWIWIWIWIWIIWWWW",
"WWWWWIWIIWIWIWWIWjO,::;;:;:;;:<OMWTPIWIWWIIWIWWWWW",
"WWWWIWIWWIWIWIIIWh+,;;;;;;;;;:,+MWTWWIWIIWWIWITWWW",
"WWWWWIWTTWIWTWWIWh+,;;;;:;:;::<+MWIWIWIWWTWWIWWWWW",
"WWWIIWITTTIITTTIWgO,;;;;;;;;;:,+MWIITIWIITITWIWWWW",
"WWWWIYWWWWWWWWWWWh#,;;:-:;:;;:<OBWWWWWWWWWWWIWIWWW",
"WWWWIWJhffdffffff9%>;:::;;;;:-,$qkhjjjkkjxMIWUWWWW",
"WWWWIWj XOXXXXXoX%>;;;;;:;;;;;:,+ooooooX+o.AWIWWWW",
"WWWWIYLw+3111<2<1,;;;;;;;;:;;;;;,2<<<1<21+rIWIWWWW",
"WWWWWIWWeX,:;;;;;;;;;-:::;::;;;;;;;;;;,,XyWWIYWWWW",
"WWWWIWIWWyX,;;;;::;;;:::;;:-;::;;;;;;,:oaWWIWWWWWW",
"WWWWWRYIWWiX,:-;;;;;;;;;;;;:-;;;;;;;,;OdWYIWWIWWWW",
"WWWWIYYWIWWpo:,;:;;:;;:;;:::::;;;;;>;+fWWIWUIIWWWW",
"WWWURIWIWIWWao:,;:;;;;:;;;;;;;;;;;<&&cWWIWIWIWWWWW",
"WWWWWIIWIWIWWs+;,;:;;:;;;::;;;;;;,%;bWIIWIWIWIWWWW",
"WWWWIWIWWIWIUWf+=,;;;;;;:-;;;;:;<%:NWIIWIWIWYUWWWW",
"WWWWWIWIIWIWIIWg%;,;:;:;::;;;;;<%<VWLWTWWIWIYLWWWW",
"WWWWIWIWIWIWWIUWh%=,;;;;:;;;:;2@3ZWIWIWIWIWIWIWWWW",
"WWWWWIWIWIWIYYWIWc%*>;;;:;:;;<#4AWIIIWIWIWIWIWWWWW",
"WWWWIWIWIWIWIWWIYWb&&,;;-;:;<#5SWIIWWIWIWIWIWIWWWW",
"WWWIWIWIWIWIWTIWRIWM;%<;:::<#6DWIWWIIWIWIWIWIIWWWW",
"WWWWIWIWIWIWIWIWWIUWN:%1;:<O7FWIWIWIWIWIWIWIWIWWWW",
"WWWUWIWIWIWIWIWIIWWIWV1%2<o8GWIIIWIWIWIWIWIWIWWWWW",
"WWWWIWIWIWIWIWIWWIWIIWZ3OX0KWIWWWIWIWIWIWIWIIWWWWW",
"WWWWWIWIWIWIWIWIIWIWWLWA6qPWPWIWIWIWIWIWIWIWWIWWWW",
"WWWWIWIWIWIWIWIWWIWIWIIWGIWITIWIWIWIWIWIWIWIIWWWWW",
"WWWWWIWIWIWIWIWIIWIWIWTIWWPWWIIWIWIWIIIWIWIIWIWWWW",
"WWWWWWWIWWWWWIWWWIWWWWWWRIWWWWWIWWWWWWWWWWWWWTWWWW",
"WWWWWWWWWWWWWWWWWWWWWWWWWWWWWWWWWWWWWWWWWWWWWWWWWW",
"WWWWWWWWWWWWWWWWWWWWWWWWWWWWWWWWWWWWWWWWWWWWWWWWWW",
"WWWWWWWWWWWWWWWWWWWWWWWWWWWWWWWWWWWWWWWWWWWWWWWWWW"
};
