/* XPM */
static char *_57fdd8e1a194672e676446d0fb50427VwwuQWp9cDFeMHE5[] = {
/* columns rows colors chars-per-pixel */
"50 50 80 1 ",
"  c #6D8399",
". c #72869B",
"X c #75899D",
"o c #798B9E",
"O c #748AA3",
"+ c #7B8EA2",
"@ c #7E91A5",
"# c #7A91A9",
"$ c #8193A7",
"% c #8395AA",
"& c #8799AD",
"* c #889AAF",
"= c #859AB1",
"- c #8A9EB4",
"; c #8B9FB8",
": c #8EA0B5",
"> c #8DA2B9",
", c #91A2B7",
"< c #92A5BB",
"1 c #97A9BF",
"2 c #AFB6BD",
"3 c #B2B8BF",
"4 c #97AAC0",
"5 c #9BAEC4",
"6 c #9EB1C7",
"7 c #9FB1C8",
"8 c #9FB2C8",
"9 c #9FB2C9",
"0 c #A0B2C8",
"q c #A0B2C9",
"w c #A0B3C9",
"e c #A1B3CA",
"r c #A2B4CA",
"t c #A2B4CB",
"y c #A3B5CB",
"u c #A3B6CC",
"i c #A4B6CC",
"p c #A4B6CD",
"a c #A5B7CD",
"s c #A5B7CE",
"d c #A7B8CF",
"f c #A7B9CF",
"g c #B3B9C1",
"h c #B5BCC2",
"j c #B5BCC3",
"k c #B6BCC2",
"l c #B6BCC3",
"z c #B7BDC4",
"x c #B8BEC5",
"c c #B9BFC6",
"v c #A6B8D0",
"b c #A7B9D0",
"n c #A7BAD1",
"m c #A9BAD1",
"M c #AABCD4",
"N c #ABBDD4",
"B c #ACBED4",
"V c #ACBED5",
"C c #B9C0C6",
"Z c #BAC0C6",
"A c #D0D3D6",
"S c #D1D4D7",
"D c #D4D6D9",
"F c #ECECED",
"G c #EDEDEE",
"H c #EDEEEE",
"J c #EFEFEF",
"K c #EFEFF0",
"L c #EFF0F0",
"P c gray94",
"I c gray95",
"U c #F4F4F3",
"Y c #F5F4F3",
"T c #F5F4F4",
"R c #F6F5F4",
"E c #F6F6F5",
"W c #F9F8F7",
"Q c #F9F9F7",
"! c #F9F9F8",
"~ c #FAF9F8",
/* pixels */
"IJKJJJJJFKFJFJJJFJJFJJFFJFJFJFJFKFKFFKLJJJJJJJFLLI",
"IKE~EWEE~~~W~E~~WWWW~WQQWWQ~E~!~WWEWWWWWQEWEWWWUJL",
"JIA2ggggggglggggggggkgg3k3kghggglggggggk3ggggk2SEJ",
"IUkO1>>>>>>.;>>>>>>>>>>>>>>>>X=<>>,>>>>>>>>>><#3WJ",
"KEk;Busssvs%qvstdtdudufdududu&5btvsssvsvffsssm<gUJ",
"IEx;d7wwqw5$5twq6w06t86w886u7&1uqqqw77776www6s>gWJ",
"IEz;bwwwqtq%qwwtt0tuu0ut8t8ut%4uwwqtwwtttwwwws>gWJ",
"JUk>dwtwqtq$5ttwttt66t6t8u7tt&4uqwwqsw7ttwwtws>gWF",
"IIx;swwwwww$5twt9ttttwttu8ttt%1uqwttqt9ttwww0f>gWJ",
"JEg;mwwswsw$qstwtt7twttttutut&4bqtqtqttttwsrwf>gWL",
"IUZ;swwwwtq+5wqq79twt7tw888t8$4uqwqt7t7twwww0r>kEJ",
"JWg &$$%$$$+$$$$$$$$+$$$@%%@$+@$%$$$%$+$$$$%%%.gWF",
"IUx=r555555q555q757<+w55555567555q55w4+505555w;gWJ",
"JEk>Brssssstttttutv5$vttuusuuutdttwtd5&tswtswb>gWF",
"IUx;s05wwwwwwwqqw7t4$t7w7w77t788qqqww5$wwwww7s,gWL",
"JUk;fwrwwwwwttwtwwv5$sw7tuu7t8tutwtwt5$wwtwtwv>gWL",
"KTx;dwwwutu88t88wwt5$v7wtwwtwtqtwwwwt5$wttwtws;gEJ",
"KWl;d5qq7777t8t8wwt4$twwwwwwqqqqwwwwt5$qwwqqqs>gWF",
"TTl>Vsssubdubundvtv5%vsvvvvvsvtvsuuudt&vvvtvsd<gWJ",
"KTl%q<444444441<445,+5,44<4<444444444<+,44<445=gWJ",
"KEl =&%&%&%X$&&&&$&%$%&%%&&%$+$&%&%%&&%&%&%&%&OgWJ",
"ITx;dwtw7uw$6t88wttwttwttwwwv$1s8ttt88t8wwswwv,gWJ",
"JEx>dwttwsw$6ttttttttttttttts&4s8utt8uuuswtwwd<gEF",
"ITx;vwwwwtw$6t8twwwwt7wwwwqww%4t8t88t888qqwwqt;gWJ",
"JEg;fwww00t$6t8trwwwwtw0wtwtw%4st888t8tt7u6t7d>gWJ",
"IUx;fwrw0u8$808twwwwwrw0tqwtt&1s8ttt8u88t8u77u>zEJ",
"JEx;swwq686$60t8www0ww06qqqqw%,v6868t88877777u>gWJ",
"KTx>Brddddd%8fdusdsmssdfvvsvd=5MtdddddudbbbbuB<kWJ",
"JWk+<;,,:,-X*-,;:::-,,;:,,-:;o&,-::>-,,<::::-,@gEF",
"IRxO,=*-&---,--&;--:++:-**--;--*::-&:&.=--&--:+gWJ",
"JEg>Brssddsdrrssssrm-,Brsssssddruudud6%uudddum<3WJ",
"IUx;f0w06t00trwwww0s--s0w0wwwww0t688t5%888887s>gEJ",
"JUk;bwwwtwtwtqtqwtws--d6wwrwwwttrtrqr5%wwwtwws;gWJ",
"IUk;b7wtwtwtwtqtwwwv-:d6wwswtwwqqqqqs5$wtrwtws>gEJ",
"JUx;mwwwtwwwqttqwwqs-:s6rwwwtwwwtwqqt5$wttwwws>gWJ",
"JWk;swwwwwwwwwwwwwws-:dwwwwrwwwwtwwqs5$qwwwtws>gWF",
"UUx>Bwsusswstsstsssd-,Mttsssstdstdvtvq%sbuussm,gWJ",
"JExX-*&&&&&&&&&&&&&&++=&*&&&&&&&&&&&=%.&&&&&&&OgWF",
"IWk#4,<<,,,+,<<<<<<<4,,<<<<<<+-<,<<<,<<<<<,<,1%kWJ",
"JUg,Bsbdvmt&wvvddsssvdvddssdd=5dtddvdvdvvbvmrM1gWF",
"ITx;swwwq7q#5wwwqqqwqqqqwwwww%,s7777777777777u>gWJ",
"KWg;dwww7uw$7twwtwqwwwqtwwwww*4v7u7uu7u7777u7b>gWF",
"IUx;dwwwwt7$5twtwrwwwwtqwtwww*<v7uu77uuuu7u77u>kWJ",
"JEg;dwwwwuw$5ttwrwrwwwqtwwwsw%1d7797u77u7u7utd>gWF",
"KUx;f0wwwww$5wwwwwwwwwwqwwqww*<s7777777777766t>gWJ",
"JEx,Bsffdmm%vmsvmssdddsdddddm=5BbbbbbbbbbbbbbB1kWJ",
"KEgO<;;;;;; =>;;;;;;;;;;;;;;;.%,-;>>>-;;>-->>>O2~J",
"KIDgxxkxxgxxkxgxkxxxxlxxxxxlxkxxzzzzzzjChzzCkZgDUJ",
"KIIEEWUEWUEWUUWUURWURWURUWUWUURREEEEEIEUEUEEEIWIJJ",
"IJIJJKJJKJJJJKJUJJIKJJJJUJJJJJIKLKLLJIJIJIJLJIIKPP"
};
